<svg width="50" height="51" viewBox="0 0 50 51" fill="none" xmlns="http://www.w3.org/2000/svg">
<mask id="mask0_120_247" style="mask-type:alpha" maskUnits="userSpaceOnUse" x="0" y="0" width="50" height="51">
<rect width="50" height="50" transform="matrix(-1 0 0 1 50 0.5)" fill="#D9D9D9"/>
</mask>
<g mask="url(#mask0_120_247)">
<path d="M38.773 38.3859L33.8438 29.8536C36.1605 29.7869 38.1202 28.9232 39.723 27.2625C41.3261 25.6013 42.1277 23.625 42.1277 21.3333C42.1277 18.967 41.2909 16.9491 39.6173 15.2796C37.944 13.6105 35.924 12.776 33.5574 12.776C31.1911 12.776 29.1733 13.6105 27.5042 15.2796C25.8348 16.9491 25.0001 18.967 25.0001 21.3333C25.0001 22.1319 25.0935 22.8718 25.2803 23.5531C25.4671 24.2343 25.7431 24.8833 26.1084 25.5L33.5204 38.3859H38.773ZM19.5621 38.3859L14.6459 29.8536C16.9622 29.7869 18.9199 28.9232 20.5188 27.2625C22.1174 25.6013 22.9167 23.625 22.9167 21.3333C22.9167 18.967 22.082 16.9491 20.4126 15.2796C18.7435 13.6105 16.7258 12.776 14.3595 12.776C11.9928 12.776 9.97282 13.6105 8.29956 15.2796C6.62595 16.9491 5.78915 18.967 5.78915 21.3333C5.78915 22.1319 5.88255 22.8718 6.06936 23.5531C6.25616 24.2343 6.5322 24.8833 6.89748 25.5L14.322 38.3859H19.5621Z" fill="#1C1B1F"/>
</g>
</svg>
