<svg width="27" height="26" viewBox="0 0 27 26" fill="none" xmlns="http://www.w3.org/2000/svg">
<path d="M7.52222 11.6556C9.12222 14.8 11.7 17.3667 14.8444 18.9778L17.2889 16.5333C17.5889 16.2333 18.0333 16.1333 18.4222 16.2667C19.6667 16.6778 21.0111 16.9 22.3889 16.9C23 16.9 23.5 17.4 23.5 18.0111V21.8889C23.5 22.5 23 23 22.3889 23C11.9556 23 3.5 14.5444 3.5 4.11111C3.5 3.5 4 3 4.61111 3H8.5C9.11111 3 9.61111 3.5 9.61111 4.11111C9.61111 5.5 9.83333 6.83333 10.2444 8.07778C10.3667 8.46667 10.2778 8.9 9.96667 9.21111L7.52222 11.6556Z" fill="white"/>
</svg>
