<svg width="41" height="40" viewBox="0 0 41 40" fill="none" xmlns="http://www.w3.org/2000/svg">
<path d="M4.66675 20.0001C4.66675 12.5367 4.66675 8.80341 6.98508 6.48508C9.30341 4.16675 13.0351 4.16675 20.5001 4.16675C27.9634 4.16675 31.6967 4.16675 34.0151 6.48508C36.3334 8.80341 36.3334 12.5351 36.3334 20.0001C36.3334 27.4634 36.3334 31.1967 34.0151 33.5151C31.6967 35.8334 27.9651 35.8334 20.5001 35.8334C13.0367 35.8334 9.30341 35.8334 6.98508 33.5151C4.66675 31.1967 4.66675 27.4651 4.66675 20.0001Z" stroke="white" stroke-width="1.5" stroke-linecap="round" stroke-linejoin="round"/>
<path d="M29.68 10.8335H29.6633M28 20.0002C28 21.9893 27.2098 23.8969 25.8033 25.3035C24.3968 26.71 22.4891 27.5002 20.5 27.5002C18.5109 27.5002 16.6032 26.71 15.1967 25.3035C13.7902 23.8969 13 21.9893 13 20.0002C13 18.011 13.7902 16.1034 15.1967 14.6969C16.6032 13.2903 18.5109 12.5002 20.5 12.5002C22.4891 12.5002 24.3968 13.2903 25.8033 14.6969C27.2098 16.1034 28 18.011 28 20.0002Z" stroke="white" stroke-width="1.5" stroke-linecap="round" stroke-linejoin="round"/>
</svg>
