<svg width="31" height="30" viewBox="0 0 31 30" fill="none" xmlns="http://www.w3.org/2000/svg">
<mask id="mask0_551_8516" style="mask-type:alpha" maskUnits="userSpaceOnUse" x="0" y="0" width="31" height="30">
<rect x="0.5" width="30" height="30" fill="#D9D9D9"/>
</mask>
<g mask="url(#mask0_551_8516)">
<path d="M15.5 15C16.1875 15 16.776 14.7552 17.2656 14.2656C17.7552 13.776 18 13.1875 18 12.5C18 11.8125 17.7552 11.224 17.2656 10.7344C16.776 10.2448 16.1875 10 15.5 10C14.8125 10 14.224 10.2448 13.7344 10.7344C13.2448 11.224 13 11.8125 13 12.5C13 13.1875 13.2448 13.776 13.7344 14.2656C14.224 14.7552 14.8125 15 15.5 15ZM15.5 24.1875C18.0417 21.8542 19.9271 19.7344 21.1562 17.8281C22.3854 15.9219 23 14.2292 23 12.75C23 10.4792 22.276 8.61979 20.8281 7.17188C19.3802 5.72396 17.6042 5 15.5 5C13.3958 5 11.6198 5.72396 10.1719 7.17188C8.72396 8.61979 8 10.4792 8 12.75C8 14.2292 8.61458 15.9219 9.84375 17.8281C11.0729 19.7344 12.9583 21.8542 15.5 24.1875ZM15.5 27.5C12.1458 24.6458 9.64062 21.9948 7.98437 19.5469C6.32812 17.099 5.5 14.8333 5.5 12.75C5.5 9.625 6.50521 7.13542 8.51562 5.28125C10.526 3.42708 12.8542 2.5 15.5 2.5C18.1458 2.5 20.474 3.42708 22.4844 5.28125C24.4948 7.13542 25.5 9.625 25.5 12.75C25.5 14.8333 24.6719 17.099 23.0156 19.5469C21.3594 21.9948 18.8542 24.6458 15.5 27.5Z" fill="white"/>
</g>
</svg>
